<?xml version="1.0" standalone="no"?>
<!DOCTYPE svg PUBLIC "-//W3C//DTD SVG 20010904//EN"
 "http://www.w3.org/TR/2001/REC-SVG-20010904/DTD/svg10.dtd">
<svg version="1.0" xmlns="http://www.w3.org/2000/svg"
 width="80.000000pt" height="80.000000pt" viewBox="0 0 80.000000 80.000000"
 preserveAspectRatio="xMidYMid meet">

<g transform="translate(0.000000,80.000000) scale(0.100000,-0.100000)"
fill="#ffffff" stroke="none">
<path d="M594 719 c66 -76 90 -130 94 -214 3 -61 0 -77 -25 -124 -69 -132
-195 -164 -293 -74 -45 40 -70 38 -70 -4 0 -34 33 -83 78 -114 47 -32 166 -34
227 -4 129 64 198 240 151 383 -22 65 -93 145 -159 179 l-50 25 47 -53z"/>
<path d="M253 691 c-122 -42 -189 -120 -212 -248 -8 -39 -8 -69 -2 -84 9 -21
10 -22 10 -4 2 29 46 121 80 164 16 20 53 50 83 66 72 40 171 42 236 5 78 -44
107 -122 80 -212 -23 -79 46 -75 82 5 87 191 -136 385 -357 308z"/>
<path d="M325 583 c-11 -2 -30 -6 -42 -9 -37 -7 -94 -65 -119 -119 -87 -186
76 -419 292 -417 60 0 134 22 179 52 l30 20 -45 -7 c-70 -12 -181 -7 -221 10
-20 8 -55 32 -77 52 -135 121 -101 323 57 349 44 7 54 16 45 40 -8 21 -62 37
-99 29z"/>
</g>
</svg>
